#!OML:ASF F:\VICON\USERDATA\INSTALL\rory3\rory3.ASF
:FULLY-SPECIFIED
:DEGREES
62
root 0.7907845775596023 17.785343773579868 15.91486973406445 -1.0455754170469977 -2.522484329211553 -6.118032058573869
lfemur -23.34450654796991 -4.520787299618075 -12.057739096280331
ltibia 15.006076100993997
lfoot -3.8864972990792466 -3.758533132172956
ltoes -6.227792681420759
rfemur 0.8132759193006276 3.5780240689944263 32.531538125575764
rtibia 26.13869687573751
rfoot -7.981013331224754 -7.896544825690975
rtoes -1.3595261738047104
lowerback 10.591454252961764 1.4804874110713586 4.786539994853209
upperback -0.33621732898391077 3.171268128015188 1.824432770495831
thorax -5.9380745798964645 1.4864811356787953 -1.6131423912872747
lowerneck -16.155687058192335 -3.477053451572221 -2.83860263680108
upperneck 21.49471144337518 -4.817830208243197 1.8412219834212213
head 9.450939470656735 -2.075790651973302 0.517635211817042
lclavicle 2.9485656848077015e-16 4.2887391017168444e-17
lhumerus -34.440338669655176 3.405678123649039 80.72491475976969
lradius 24.228616133299962
lwrist 7.762131516772953
lhand -29.111398568767346 19.90647481445894
lfingers 7.125020000000001
lthumb -2.4209088026144205 50.286962160712484
rclavicle 2.972256609944305e-16 5.396471855472277e-17
rhumerus -24.87260581030903 -15.019837691011835 -79.16037880958517
rradius 32.46894865007143
rwrist -0.7719990610426586
rhand -17.99540448212373 22.834959182907063
rfingers 7.125020000000001
rthumb 8.290365036264856 -6.806025902017918
63
root 0.8445944544345996 17.790621349530152 16.748478807106167 -1.6585333261822155 -2.13823598273074 -5.310116120894845
lfemur -22.85493162519266 -3.6125685100897256 -13.857167725974673
ltibia 19.83009927310091
lfoot -3.3481738536099894 -4.242794575776404
ltoes -6.953961289286389
rfemur 0.46064261883508273 2.8188811669391685 31.234559087468966
rtibia 30.291628437563936
rfoot -6.133238687282867 -7.263113038997323
rtoes -2.834153818171311
lowerback 10.538262384077296 1.5143707719911388 4.411256195923437
upperback -0.34664193955438094 3.0448659851385944 1.6514569112200173
thorax -5.934110484277295 1.4894103215198478 -1.5797406840396075
lowerneck -16.19147222475331 -3.448038311996099 -2.8306823495408486
upperneck 21.46146287204833 -4.8518505320525565 1.9199334885579082
head 9.440437601128865 -2.0823953200194296 0.5325747480793146
lclavicle 2.9485646237501526e-16 4.288735168108862e-17
lhumerus -34.092266859752755 3.68698092408535 80.5479594677479
lradius 23.827616451304284
lwrist 7.493555897607394
lhand -29.114770606136116 19.75622427971452
lfingers 7.125020000000001
lthumb -2.425073615508315 50.11871078711335
rclavicle 2.972256319097113e-16 5.396470100979339e-17
rhumerus -25.668074215459093 -15.718591401843732 -78.89248310760755
rradius 32.24644053195694
rwrist -0.39369702322081723
rhand -17.970248765836665 22.804409330537933
rfingers 7.125020000000001
rthumb 8.306384247862628 -6.8636642988102805
64
root 0.896640733823735 17.82163629339101 17.388059177409552 -2.3176050490292814 -1.8922662639060635 -4.331915537799762
lfemur -21.762882723473275 -3.482790791737344 -15.74300926710965
ltibia 23.850789670253207
lfoot -2.3648004161852487 -4.743686950277253
ltoes -7.636614303501527
rfemur -1.0370063116001536 1.8158422338394826 29.594092373516688
rtibia 36.512684240577535
rfoot -3.732201401712488 -6.67894658841557
rtoes -3.6349150596189554
lowerback 10.540356031631656 1.5343650218858307 3.9056186877163475
upperback -0.33548740621492656 2.8737401284383672 1.464057345546502
thorax -5.948040215967615 1.4782351853387197 -1.4482786527378944
lowerneck -16.21674808488188 -3.4122196785633503 -2.817512599869259
upperneck 21.464742189455848 -4.908132414950649 2.014402155963854
head 9.44006591422751 -2.102534440352207 0.5544852108892562
lclavicle 2.948565554721081e-16 4.2887425628227144e-17
lhumerus -33.81309161980664 3.597047076806939 80.46245545615001
lradius 23.466864655148314
lwrist 7.300496611287655
lhand -29.127925153354294 19.592619675238325
lfingers 7.125020000000001
lthumb -2.4322529849539873 49.94304943961969
rclavicle 2.972255415465865e-16 5.396463882525662e-17
rhumerus -26.934142337397663 -16.728538887744115 -78.57301466731421
rradius 31.891372863146202
rwrist 0.14969088415243936
rhand -17.94923334258592 22.77658011541296
rfingers 7.125020000000001
rthumb 8.312151279072154 -6.927315951423254
65
root 0.9417581702237798 17.86557887644962 17.96851672690216 -2.904834837425594 -1.902843782372499 -3.3054053696231707
lfemur -20.330308569539238 -3.171517675469462 -17.670019984896378
ltibia 26.837288700030648
lfoot -2.9024659282615595 -5.205440146230191
ltoes -8.248095523242656
rfemur -3.4832735156985706 1.075097562477421 28.164415315985096
rtibia 44.634701006843954
rfoot -1.0396950253636152 -6.270677310802796
rtoes -3.162680130768826
lowerback 10.597204566149054 1.5420304281478137 3.2830960716445716
upperback -0.29642303897470423 2.6561913084829687 1.2835596464317471
thorax -5.983044187643125 1.4526338938149623 -1.237441341570417
lowerneck -16.24057823380726 -3.3750533948498735 -2.801931124553083
upperneck 21.510989200412887 -4.950895009291515 2.0881387023214315
head 9.437039570556243 -2.1293898806213445 0.5635155749933393
lclavicle 2.948564770855986e-16 4.288728910718715e-17
lhumerus -33.53271026849544 3.3424296335778605 80.37666634374592
lradius 23.181584256037223
lwrist 7.2329712767576835
lhand -29.148036366023074 19.435270382897777
lfingers 7.125020000000001
lthumb -2.4581424119336197 49.73017848412464
rclavicle 2.9722555068045565e-16 5.396464759382407e-17
rhumerus -28.22849863543655 -17.69611267506734 -78.44853555623443
rradius 31.43264650205424
rwrist 0.7328616808818764
rhand -17.924302056211868 22.767678593675363
rfingers 7.125020000000001
rthumb 8.3091480352794 -6.9998342346820515
66
root 0.9739147065105752 17.907822332749653 18.398817813267392 -3.3750001722837 -2.1218328910443147 -2.319608891182961
lfemur -18.36161817111642 -2.6604735872573535 -19.482242909949928
ltibia 29.287267897225703
lfoot -3.893213568348729 -5.190726405930503
ltoes -8.87920496229443
rfemur -7.20661373042406 0.4268282182977776 26.50973821690255
rtibia 53.95915069462747
rfoot 1.1401748054345537 -6.408835674870436
rtoes -1.1803900715045446
lowerback 10.715420472718678 1.528311118754808 2.563997409073985
upperback -0.2208677797475734 2.3764528928462907 1.1389039834185848
thorax -6.038497834168672 1.406964100194821 -0.9622568896503736
lowerneck -16.281279376776116 -3.3509681243985083 -2.802708589480055
upperneck 21.518264757334734 -4.956839533458073 2.1144833812183537
head 9.441425463595369 -2.148866067864173 0.5665619456164179
lclavicle 2.948566054095028e-16 4.288738627073148e-17
lhumerus -33.31338316702387 2.8891602060350032 80.22107724314301
lradius 23.002766214833695
lwrist 7.237840497465622
lhand -29.183056311048592 19.253068423189386
lfingers 7.125020000000001
lthumb -2.488121077558564 49.519446806882854
rclavicle 2.9722554252775505e-16 5.39646432481751e-17
rhumerus -29.228118330908597 -18.46873784901266 -78.31530714285014
rradius 30.893801239056348
rwrist 1.323628060453105
rhand -17.88751639923712 22.782195390842126
rfingers 7.125020000000001
rthumb 8.307141557601783 -7.065639710788705
67
root 0.9927767020273102 17.94072518791719 18.91200205525428 -3.7165937758620053 -2.2679460864290317 -1.4453767042970709
lfemur -15.685434015992719 -2.4906696280022445 -21.38136986380934
ltibia 29.885096427869236
lfoot -4.24744781680038 -4.656814632244418
ltoes -9.38595765603548
rfemur -10.646246653177332 -0.32155108517515396 25.389177573839593
rtibia 63.0852413051137
rfoot 2.4745633508873004 -6.836843373979605
rtoes 2.347924327870461
lowerback 10.884977984403326 1.4712264940476656 1.7782471175688954
upperback -0.10946169363620845 2.0329611274824027 1.0581709204034393
thorax -6.106115104622064 1.3366638673575602 -0.625291967441808
lowerneck -16.330743536053806 -3.336055574832709 -2.811440936290907
upperneck 21.445922015622426 -4.917752771355663 2.1183254095414625
head 9.449407809827653 -2.153266821310546 0.5637911837555818
lclavicle 2.948564881426885e-16 4.2887318112425725e-17
lhumerus -32.88847534998663 2.5175563894297763 80.14500181074845
lradius 22.94841935674616
lwrist 7.258937430408144
lhand -29.21974566039304 19.091740564984047
lfingers 7.125020000000001
lthumb -2.514145491398689 49.34268138682139
rclavicle 2.972255327487862e-16 5.3964634085779375e-17
rhumerus -29.7712158852389 -18.942968675270553 -78.21613271070957
rradius 30.324684690994125
rwrist 1.9486348999026863
rhand -17.841904899206245 22.807881826513476
rfingers 7.125020000000001
rthumb 8.309227869843438 -7.111011520004739
68
root 0.998419772552209 17.956269369682378 19.279475701495162 -3.9420048310204114 -2.228106381604209 -0.9134722214729969
lfemur -12.659860366794357 -2.4747546358067924 -22.852280039673367
ltibia 29.604850325362243
lfoot -4.19958717175851 -3.6978554613327432
ltoes -9.850383700571594
rfemur -14.258566602932474 -1.2386138260703952 24.568786656789587
rtibia 70.25306716366362
rfoot 2.0631068679993616 -7.635949174409847
rtoes 5.138724143140685
lowerback 11.077464945164422 1.3463816918859295 1.0003676124216543
upperback 0.00792710689249404 1.6119933126526098 1.032971871258271
thorax -6.174068884000677 1.238733827228802 -0.22823615540533893
lowerneck -16.376721963249043 -3.3204746538067473 -2.8164200637800034
upperneck 21.311482742671053 -4.866494076383258 2.0891776408252376
head 9.457136289047362 -2.1408839979977787 0.5629903366913078
lclavicle 2.948565812687103e-16 4.288742312109511e-17
lhumerus -32.3259941785228 2.218435096934263 80.17681295509428
lradius 23.0207720771323
lwrist 7.31751308058218
lhand -29.254361299524483 18.967716433876266
lfingers 7.125020000000001
lthumb -2.5383164711562936 49.199056789141395
rclavicle 2.972255405992728e-16 5.396464200684769e-17
rhumerus -30.222997851112698 -19.49616660811375 -78.04781421525664
rradius 29.83017476215989
rwrist 2.6386753451221634
rhand -17.802111523602736 22.8296239346352
rfingers 7.125020000000001
rthumb 8.311274060606552 -7.134403206096687
